#!OML:ASF H:\Terrain\Patient Classification 1\Terrain2\Thursday\justin.ASF
:FULLY-SPECIFIED
:DEGREES
3632
root 20.0807 20.9384 -4.71666 1799.98 -4.54447 356.744
lowerback 6.61347 1.87771 2.25279
upperback 2.27151 2.68065 2.35767
thorax -1.37265 1.33467 0.956774
lowerneck -14.3864 -2.16335 -9.58785
upperneck 35.9458 -2.01306 4.81384
head 15.106 -1.4994 3.38841
rclavicle 3.05631e-014 2.06736e-014
rhumerus -34.0284 -8.79797 -77.706
rradius 30.0969
rwrist -10.8898
rhand -20.4136 10.7188
rfingers 7.12502
rthumb 5.9405 -19.1779
lclavicle 3.05631e-014 2.06736e-014
lhumerus -37.668 13.9784 80.748
lradius 24.1266
lwrist -0.264098
lhand -14.3853 23.6815
lfingers 7.12502
lthumb 11.7576 53.3315
rfemur -1.45222 -0.816447 20.9289
rtibia 51.6772
rfoot 12.5862 8.88085
rtoes 11.8835
lfemur -16.8886 2.63877 -17.1517
ltibia 24.6341
lfoot -4.89399 -14.27
ltoes 7.39648
3633
root 20.0994 20.9261 -4.60792 1799.65 -4.71909 357.337
lowerback 6.80821 1.90088 1.62058
upperback 2.35155 2.6718 2.18705
thorax -1.41948 1.32961 1.12976
lowerneck -14.3706 -2.10267 -9.51097
upperneck 35.9209 -1.91696 4.7287
head 15.0783 -1.45969 3.35327
rclavicle 1.76421e-014 -5.1684e-015
rhumerus -34.0323 -8.80224 -77.7329
rradius 29.9385
rwrist -10.5913
rhand -20.3411 11.3717
rfingers 7.12502
rthumb 6.01048 -18.5231
lclavicle 1.76421e-014 -5.1684e-015
lhumerus -37.4307 13.5444 80.9545
lradius 24.265
lwrist -0.329136
lhand -14.1411 24.1066
lfingers 7.12502
lthumb 11.9931 53.743
rfemur -2.66414 -1.27797 20.1882
rtibia 54.6485
rfoot 12.0475 10.2595
rtoes 2.44122
lfemur -15.6781 2.63792 -17.8766
ltibia 23.6941
lfoot -4.91202 -14.1035
ltoes 7.60732
3634
root 20.1168 20.9384 -4.49285 1799.26 -4.76868 357.895
lowerback 7.10085 1.86692 1.0194
upperback 2.40429 2.58969 2.03122
thorax -1.5464 1.2877 1.30308
lowerneck -14.4611 -2.04884 -9.3259
upperneck 36.043 -1.82105 4.54815
head 15.1441 -1.42171 3.2637
rclavicle -2.27608e-014 -3.18055e-014
rhumerus -34.0561 -8.72772 -77.7805
rradius 29.8371
rwrist -10.2814
rhand -19.9448 11.574
rfingers 7.12502
rthumb 6.39311 -18.3095
lclavicle -2.27608e-014 -3.18055e-014
lhumerus -37.2566 13.0267 81.1747
lradius 24.3199
lwrist -0.0551924
lhand -15.0189 23.8851
lfingers 7.12502
lthumb 11.1465 53.569
rfemur -4.06884 -1.56268 19.377
rtibia 57.6809
rfoot 11.3708 10.0366
rtoes 3.02164
lfemur -14.4168 2.40687 -18.5553
ltibia 22.8592
lfoot -5.06114 -13.9184
ltoes 6.69015
3635
root 20.1318 20.9557 -4.38641 1798.98 -4.62796 358.267
lowerback 7.35713 1.73571 0.574522
upperback 2.4756 2.38529 1.92093
thorax -1.62515 1.18519 1.44909
lowerneck -14.5418 -1.98664 -9.18366
upperneck 36.0531 -1.7453 4.48811
head 15.1568 -1.37933 3.22584
rclavicle 5.36719e-015 -3.06128e-014
rhumerus -33.894 -8.82686 -77.8476
rradius 29.7446
rwrist -9.87938
rhand -19.6008 11.1847
rfingers 7.12502
rthumb 6.72518 -18.6885
lclavicle 5.36719e-015 -3.06128e-014
lhumerus -37.102 12.4121 81.3813
lradius 24.7464
lwrist 0.277543
lhand -15.4581 23.8894
lfingers 7.12502
lthumb 10.7229 53.5957
rfemur -5.58792 -1.93412 18.74
rtibia 60.7078
rfoot 10.3065 9.29695
rtoes 6.7091
lfemur -13.3554 2.37571 -19.047
ltibia 22.1422
lfoot -5.13859 -14.0784
ltoes 5.57448
3636
root 20.1416 20.9741 -4.29747 1798.81 -4.31881 358.625
lowerback 7.61781 1.58188 0.110221
upperback 2.54369 2.14724 1.81627
thorax -1.70706 1.06601 1.61635
lowerneck -14.7161 -1.95493 -9.05864
upperneck 36.067 -1.69556 4.41844
head 15.1968 -1.35089 3.18322
rclavicle 1.05356e-014 8.34896e-015
rhumerus -33.6662 -9.03096 -77.9416
rradius 29.679
rwrist -9.57807
rhand -19.7922 11.0612
rfingers 7.12502
rthumb 6.54041 -18.8178
lclavicle 1.05356e-014 8.34896e-015
lhumerus -36.7041 11.8183 81.5966
lradius 25.0375
lwrist 0.506007
lhand -15.4012 24.0719
lfingers 7.12502
lthumb 10.7778 53.7754
rfemur -7.34231 -2.49323 18.1851
rtibia 63.8499
rfoot 8.94661 8.57987
rtoes 5.38031
lfemur -12.4122 2.69381 -19.5292
ltibia 21.2186
lfoot -5.02042 -14.6511
ltoes 5.66821
3637
root 20.1493 20.9914 -4.20452 1798.66 -4.05006 359.074
lowerback 7.83157 1.43759 -0.502499
upperback 2.5245 1.91001 1.75123
thorax -1.85598 0.94811 1.90961
lowerneck -14.5484 -1.89062 -9.09664
upperneck 35.9716 -1.58865 4.37178
head 15.1015 -1.31661 3.18364
rclavicle 7.55382e-015 3.18055e-015
rhumerus -33.5953 -9.04969 -77.9551
rradius 29.6119
rwrist -9.39648
rhand -20.0352 10.9789
rfingers 7.12502
rthumb 6.30579 -18.9072
lclavicle 7.55382e-015 3.18055e-015
lhumerus -36.4411 11.4017 81.8246
lradius 25.165
lwrist 0.958666
lhand -15.8963 23.1635
lfingers 7.12502
lthumb 10.3002 52.8913
rfemur -9.16179 -3.19762 17.5542
rtibia 66.9615
rfoot 6.9558 7.91751
rtoes 1.559
lfemur -11.4753 2.88411 -20.0942
ltibia 20.2783
lfoot -4.88109 -15.0488
ltoes 6.17563
3638
root 20.159 21.0106 -4.10138 1798.53 -3.9875 359.417
lowerback 7.91462 1.34203 -1.03432
upperback 2.49347 1.74272 1.75408
thorax -1.94311 0.865554 2.22549
lowerneck -14.0965 -1.78679 -9.2317
upperneck 35.718 -1.44806 4.39479
head 14.8633 -1.26886 3.22938
rclavicle 6.65929e-015 6.36111e-015
rhumerus -33.5856 -9.04521 -77.8742
rradius 29.6255
rwrist -9.21343
rhand -19.9529 10.7816
rfingers 7.12502
rthumb 6.38532 -19.1021
lclavicle 6.65929e-015 6.36111e-015
lhumerus -36.2593 11.1678 82.0239
lradius 25.2239
lwrist 1.40694
lhand -15.1799 21.4449
lfingers 7.12502
lthumb 10.9912 51.1372
rfemur -11.0548 -3.65014 17.0575
rtibia 70.0216
rfoot 4.84914 7.0297
rtoes -1.22478
lfemur -10.5018 2.87507 -20.5193
ltibia 19.3598
lfoot -4.58348 -15.0718
ltoes 7.53066
3639
root 20.1731 21.0331 -3.99838 1798.37 -3.97148 359.469
lowerback 7.98051 1.28087 -1.12248
upperback 2.58437 1.65349 1.76011
thorax -1.88409 0.819788 2.2898
lowerneck -14.0566 -1.72715 -9.2543
upperneck 35.665 -1.37088 4.43196
head 14.8215 -1.23328 3.25954
rclavicle -1.49089e-016 -1.82882e-014
rhumerus -33.4293 -9.33771 -77.8124
rradius 29.6579
rwrist -9.06988
rhand -19.7793 10.9742
rfingers 7.12502
rthumb 6.5529 -18.9044
lclavicle -1.49089e-016 -1.82882e-014
lhumerus -35.7983 10.8519 82.1642
lradius 25.3899
lwrist 1.33255
lhand -16.1451 21.0279
lfingers 7.12502
lthumb 10.0602 50.7674
rfemur -12.9159 -3.89732 16.8519
rtibia 72.9787
rfoot 2.82347 5.72467
rtoes -1.02276
lfemur -9.47515 2.90547 -20.6369
ltibia 18.4678
lfoot -4.2175 -15.0503
ltoes 9.702
3640
root 20.1869 21.0499 -3.9012 1798.22 -3.84715 359.543
lowerback 8.12987 1.15311 -1.19521
upperback 2.61747 1.47609 1.72366
thorax -1.9247 0.731349 2.30806
lowerneck -14.1024 -1.6361 -9.13617
upperneck 35.7092 -1.23941 4.35206
head 14.8381 -1.17392 3.22778
rclavicle 9.34288e-015 8.34896e-015
rhumerus -33.3405 -9.51616 -77.8335
rradius 29.6445
rwrist -9.05003
rhand -19.7639 11.4329
rfingers 7.12502
rthumb 6.56772 -18.4453
lclavicle 9.34288e-015 8.34896e-015
lhumerus -35.6066 10.4495 82.1341
lradius 25.9101
lwrist 1.02962
lhand -14.9373 22.0837
lfingers 7.12502
lthumb 11.2252 51.7634
rfemur -14.7119 -4.37394 16.6198
rtibia 75.7649
rfoot 0.716048 4.53078
rtoes -2.22404
lfemur -8.46891 2.92919 -20.7904
ltibia 17.5389
lfoot -4.05606 -15.1395
ltoes 10.0797
3641
root 20.1944 21.0624 -3.80826 1798.13 -3.64355 359.762
lowerback 8.28776 0.982436 -1.53469
upperback 2.54839 1.22092 1.6968
thorax -2.07682 0.60634 2.49418
lowerneck -14.0302 -1.52662 -9.05033
upperneck 35.792 -1.06314 4.21441
head 14.8428 -1.1098 3.18501
rclavicle -6.4605e-016 1.03368e-014
rhumerus -33.4237 -9.4136 -77.8861
rradius 29.7732
rwrist -9.05953
rhand -19.8024 11.1808
rfingers 7.12502
rthumb 6.53061 -18.6985
lclavicle -6.4605e-016 1.03368e-014
lhumerus -35.5633 10.2109 82.0442
lradius 26.2917
lwrist 0.902922
lhand -14.9857 21.8312
lfingers 7.12502
lthumb 11.1785 51.5134
rfemur -16.6314 -5.18638 16.3584
rtibia 78.4434
rfoot -0.825589 3.86558
rtoes -5.50628
lfemur -7.4368 2.95647 -21.0748
ltibia 16.3516
lfoot -3.83025 -15.3267
ltoes 9.33121
